<?xml version="1.0" encoding="UTF-8"?>
<svg id="Layer_2" data-name="Layer 2" xmlns="http://www.w3.org/2000/svg" xmlns:xlink="http://www.w3.org/1999/xlink" viewBox="0 0 165.02 112.37">
  <defs>
    <style>
      .cls-1 {
        fill: url(#linear-gradient-2);
      }

      .cls-2 {
        fill: url(#linear-gradient-10);
      }

      .cls-3 {
        fill: #231f20;
      }

      .cls-4 {
        fill: #fff;
      }

      .cls-5 {
        fill: none;
      }

      .cls-6 {
        fill: url(#linear-gradient-4);
      }

      .cls-7 {
        fill: url(#linear-gradient-3);
      }

      .cls-8 {
        fill: url(#linear-gradient-5);
      }

      .cls-9 {
        fill: url(#linear-gradient-8);
      }

      .cls-10 {
        fill: url(#linear-gradient-7);
      }

      .cls-11 {
        fill: url(#linear-gradient-9);
      }

      .cls-12 {
        fill: url(#linear-gradient-11);
      }

      .cls-13 {
        fill: url(#linear-gradient-6);
      }

      .cls-14 {
        fill: #b9e5fb;
      }

      .cls-15 {
        fill: url(#linear-gradient);
      }
    </style>
    <linearGradient id="linear-gradient" x1="83.32" y1="13.79" x2="83.32" y2="105.89" gradientUnits="userSpaceOnUse">
      <stop offset=".05" stop-color="#fff"/>
      <stop offset=".3" stop-color="#fff"/>
      <stop offset=".7" stop-color="#b0b0b0"/>
      <stop offset=".99" stop-color="#fdfdfd"/>
      <stop offset="1" stop-color="#fff"/>
    </linearGradient>
    <linearGradient id="linear-gradient-2" x1="86.85" y1="33.27" x2="67.07" y2="60.06" gradientUnits="userSpaceOnUse">
      <stop offset="0" stop-color="#1d4573"/>
      <stop offset=".54" stop-color="#67beeb"/>
    </linearGradient>
    <linearGradient id="linear-gradient-3" x1="70.9" y1="55.66" x2="53.83" y2="67.02" gradientUnits="userSpaceOnUse">
      <stop offset="0" stop-color="#1d4573"/>
      <stop offset=".54" stop-color="#309fd9"/>
    </linearGradient>
    <linearGradient id="linear-gradient-4" x1="87.64" y1="37.42" x2="87.64" y2="72.37" gradientUnits="userSpaceOnUse">
      <stop offset=".05" stop-color="#fff"/>
      <stop offset=".29" stop-color="#fff"/>
      <stop offset=".7" stop-color="#b0b0b0"/>
      <stop offset=".99" stop-color="#fdfdfd"/>
      <stop offset="1" stop-color="#fff"/>
    </linearGradient>
    <linearGradient id="linear-gradient-5" x1="41.79" y1="37.42" x2="41.79" y2="72.37" xlink:href="#linear-gradient-4"/>
    <linearGradient id="linear-gradient-6" x1="133.04" y1="37.42" x2="133.04" y2="72.37" xlink:href="#linear-gradient-4"/>
    <linearGradient id="linear-gradient-7" x1="87.93" y1="79.02" x2="87.93" y2="25.69" gradientUnits="userSpaceOnUse">
      <stop offset="0" stop-color="#003c6b"/>
      <stop offset=".54" stop-color="#27a4dd"/>
      <stop offset=".7" stop-color="#1da6df"/>
      <stop offset=".97" stop-color="#03afe6"/>
      <stop offset="1" stop-color="#00b0e7"/>
    </linearGradient>
    <linearGradient id="linear-gradient-8" x1="41.79" y1="79.02" x2="41.79" y2="25.69" xlink:href="#linear-gradient-7"/>
    <linearGradient id="linear-gradient-9" x1="132.59" y1="79.02" x2="132.59" y2="25.69" xlink:href="#linear-gradient-7"/>
    <linearGradient id="linear-gradient-10" x1="50.58" y1="56.7" x2="95.96" y2="56.7" xlink:href="#linear-gradient-7"/>
    <linearGradient id="linear-gradient-11" x1="89.5" y1="34.72" x2="69.59" y2="61.68" xlink:href="#linear-gradient-4"/>
  </defs>
  <g id="Layer_1-2" data-name="Layer 1">
    <path class="cls-15" d="M164.85,40.15h0c-.33-1.51-1.02-2.79-2.06-3.82-.95-.95-2.15-1.65-3.55-2.08-1.12-.34-2.3-.51-3.49-.51h-42.53l-8.79,27.07h-10.77l8.76-27.07h-8.06L110.81,0l-35.06,35.07c-.49-.28-1-.51-1.54-.7-1.2-.42-2.44-.64-3.71-.64H16.69L1.63,80.12h50.09l-15.03,32.25,33.43-33.3c1.36.7,2.92,1.05,4.64,1.05h48.03l3.23-9.95h20.64c1.14,0,2.33-.16,3.52-.46,1.26-.32,2.47-.83,3.58-1.52,1.1-.68,2.11-1.54,3-2.56.98-1.12,1.73-2.44,2.22-3.91l5.52-16.9c.55-1.65.67-3.22.35-4.68Z"/>
    <path class="cls-3" d="M163.71,40.4h0c-.28-1.28-.87-2.38-1.74-3.25-.82-.82-1.85-1.42-3.06-1.79-1.01-.31-2.07-.46-3.16-.46h-41.68l-8.79,27.07h-13.21l8.76-27.07h-8.32l14.21-29.16-30.81,30.82c-.63-.46-1.33-.82-2.08-1.09-1.07-.38-2.19-.57-3.32-.57H17.53L3.23,78.96h50.32l-13.03,27.96,29.42-29.31c1.35.89,2.97,1.34,4.82,1.34h47.19l3.23-9.95h21.49c1.05,0,2.13-.14,3.23-.42,1.15-.29,2.24-.76,3.25-1.38,1-.62,1.93-1.4,2.74-2.33.88-1,1.55-2.18,1.99-3.5l5.53-16.91c.48-1.45.59-2.81.32-4.06Z"/>
    <g>
      <path class="cls-4" d="M65.1,75.9h-15.74l8.82-27.07h-4.61l-8.83,27.07h-15.61l8.83-27.07h-4.61l-8.83,27.07H7.44l12.32-37.94h50.74c.79,0,1.56.13,2.3.39.75.26,1.37.65,1.88,1.15.5.51.84,1.13,1.02,1.88.17.75.11,1.58-.2,2.5l-10.41,32.01Z"/>
      <path class="cls-4" d="M104.01,65.03l1.98,10.87h-31.23c-1.62,0-2.91-.47-3.85-1.42s-1.11-2.36-.49-4.25l10.47-32.27h15.74l-8.76,27.07h16.15Z"/>
      <path class="cls-4" d="M146.66,65.95h-23.71l-3.23,9.95h-15.74l12.32-37.94h39.45c.79,0,1.55.11,2.27.33.72.22,1.32.56,1.78,1.02.46.46.77,1.04.92,1.75.15.7.08,1.51-.23,2.44l-5.53,16.93c-.31.92-.77,1.74-1.38,2.44-.61.7-1.3,1.28-2.04,1.75-.75.46-1.55.8-2.4,1.02-.86.22-1.68.33-2.47.33ZM142.97,48.89h-14.49l-3.95,12.12c2.24-2.24,4.56-3.79,6.95-4.64,2.39-.86,4.8-1.28,7.21-1.28h2.3l1.98-6.19Z"/>
    </g>
    <path class="cls-1" d="M70.88,58.63h-8.15l29.67-33.01c-10.74,11.4-21.48,22.8-32.23,34.22h8.59l-14.05,26.43c.52.03,16.17-27.64,16.17-27.64Z"/>
    <path class="cls-7" d="M60.17,59.84h8.59l2.12-1.21h-8.15l-2.56,1.21Z"/>
    <g>
      <path class="cls-14" d="M10.53,82.92l-1.76,5.83h-1.42l.96-3.18c.08-.25.17-.54.29-.86l.16-.44.16-.43h-.04l-.29.41-.29.41c-.26.36-.46.63-.6.81l-2.64,3.29h-1.3l-.68-3.26c-.04-.18-.08-.45-.12-.81l-.05-.41-.05-.4h-.04l-.1.42-.1.43c-.08.33-.15.61-.22.85l-.96,3.18H0l1.76-5.83h2.32l.53,2.7c.03.19.07.46.12.81l.04.41.05.4h.05l.28-.4.29-.4c.24-.34.44-.61.59-.8l2.14-2.71h2.37Z"/>
      <path class="cls-14" d="M14.98,82.87c1.36,0,2.19.18,2.47.53.29.35.24,1.14-.13,2.36-.4,1.34-.85,2.18-1.35,2.52-.5.35-1.5.52-3.02.52-1.36,0-2.19-.17-2.49-.51-.3-.34-.27-1.1.09-2.27.42-1.39.88-2.26,1.38-2.62.5-.36,1.51-.53,3.05-.53ZM14.58,83.82c-.96,0-1.54.1-1.76.29s-.5.85-.84,1.98c-.25.84-.31,1.34-.17,1.51.14.17.67.26,1.59.26s1.44-.1,1.68-.29c.23-.19.5-.78.79-1.75.3-.98.39-1.55.27-1.73-.11-.18-.63-.27-1.55-.27Z"/>
      <path class="cls-14" d="M17.38,88.75l1.76-5.83h3.69c1.05,0,1.73.18,2.04.53.31.36.33.98.06,1.87-.44,1.45-.89,2.39-1.35,2.8-.46.41-1.29.62-2.47.62h-3.73ZM19.09,87.82h2.03c.68,0,1.16-.12,1.43-.36.27-.24.54-.78.79-1.61.26-.86.34-1.41.23-1.64-.11-.23-.49-.35-1.16-.35h-2.12l-1.2,3.97Z"/>
      <path class="cls-14" d="M27.69,83.85l-.45,1.5h3.52l-.25.82h-3.52l-.5,1.65h3.74l-.28.93h-5.16l1.76-5.83h5.13l-.28.93h-3.71Z"/>
      <path class="cls-14" d="M31.01,88.75l1.76-5.83h3.7c.92,0,1.52.12,1.79.37.27.25.31.7.12,1.35-.18.59-.39.99-.63,1.21-.24.22-.64.37-1.2.45v.04c.81.04,1.11.42.89,1.13l-.39,1.29h-1.42l.32-1.06c.18-.6-.11-.9-.87-.9h-2.05l-.59,1.96h-1.42ZM33.31,85.85h2.04c.49,0,.83-.07,1.03-.2.2-.14.36-.41.49-.81.13-.42.14-.68.04-.8-.1-.12-.38-.18-.85-.18h-2.14l-.61,2Z"/>
      <path class="cls-14" d="M46.99,82.92l-1.76,5.83h-2.41l-1.18-3.2c-.06-.16-.14-.44-.25-.84l-.12-.42-.11-.42h-.05l-.09.38-.1.38-.22.76-1.01,3.34h-1.42l1.76-5.83h2.41l1.06,2.95c.09.26.2.58.31.95l.14.47.14.48h.05l.1-.38.1-.38.22-.75,1.01-3.36h1.42Z"/>
    </g>
    <g>
      <path class="cls-14" d="M71.33,82.92l-1.46,4.84h3.52l-.3.99h-4.94l1.76-5.83h1.42Z"/>
      <path class="cls-14" d="M76.99,82.92l-1.76,5.83h-1.42l1.76-5.83h1.42Z"/>
      <path class="cls-14" d="M80.45,85.65h3.3l-.33,1.16c-.25.84-.62,1.39-1.1,1.63-.48.24-1.43.37-2.84.37-1.3,0-2.11-.16-2.43-.49-.32-.32-.33-.99-.03-1.99.39-1.28.71-2.08.98-2.42.33-.41.73-.69,1.2-.83.47-.14,1.21-.21,2.23-.21,1.33,0,2.16.11,2.48.33.32.22.37.71.14,1.47h-1.44c.09-.38.05-.62-.11-.71-.16-.09-.62-.14-1.38-.14-.82,0-1.37.08-1.64.24s-.49.53-.67,1.12l-.18.59-.21.75c-.17.58-.18.95,0,1.1.17.16.66.24,1.46.24s1.29-.07,1.54-.2c.25-.13.45-.45.6-.95l.08-.24h-1.88l.25-.82Z"/>
      <path class="cls-14" d="M91.96,82.92l-1.76,5.83h-1.42l.76-2.52h-3.52l-.76,2.52h-1.42l1.76-5.83h1.42l-.72,2.38h3.52l.72-2.38h1.42Z"/>
      <path class="cls-14" d="M95.97,83.91l-1.46,4.84h-1.42l1.46-4.84h-2.16l.3-.99h5.83l-.3.99h-2.24Z"/>
      <path class="cls-14" d="M106.05,85.94h1.22l-.06.19-.16.51c-.07.25-.2.51-.37.78l.86.71-.87.64-.72-.59c-.46.42-1.29.63-2.5.63-1.34,0-2.18-.12-2.53-.36-.34-.24-.4-.75-.16-1.52.26-.87.89-1.37,1.87-1.47-.33-.28-.42-.63-.3-1.05.16-.54.44-.91.84-1.11.4-.21,1.04-.31,1.93-.31.93,0,1.53.1,1.81.31.28.21.33.6.15,1.18l-.1.3h-1.26l.05-.17c.11-.35.11-.57.02-.66-.1-.09-.38-.13-.86-.13-.7,0-1.12.2-1.24.61-.08.28.02.54.31.78l1.82,1.52c.08-.15.14-.29.18-.41.03-.11.05-.23.05-.36ZM103.24,85.96c-.57.06-.95.38-1.12.97-.14.45-.13.74.02.86.15.12.57.18,1.25.18.59,0,.98-.02,1.16-.06.19-.04.41-.16.66-.35l-1.98-1.6Z"/>
      <path class="cls-14" d="M110.9,88.75l1.76-5.83h3.4c1.01,0,1.66.14,1.93.41.27.27.29.8.05,1.59-.24.78-.56,1.3-.98,1.55-.41.26-1.13.38-2.16.38h-.33s-1.68,0-1.68,0l-.57,1.88h-1.42ZM113.17,85.94h1.62c.64,0,1.07-.06,1.28-.17.21-.12.38-.39.51-.82.15-.49.17-.8.06-.92-.11-.12-.47-.18-1.08-.18h-1.76l-.63,2.08Z"/>
      <path class="cls-14" d="M122.67,82.87c1.36,0,2.19.18,2.47.53.29.35.24,1.14-.13,2.36-.4,1.34-.86,2.18-1.35,2.52-.5.35-1.5.52-3.02.52-1.36,0-2.19-.17-2.49-.51-.3-.34-.27-1.1.09-2.27.42-1.39.88-2.26,1.38-2.62.5-.36,1.51-.53,3.05-.53ZM122.28,83.82c-.96,0-1.54.1-1.76.29s-.5.85-.84,1.98c-.25.84-.31,1.34-.17,1.51.14.17.67.26,1.59.26s1.44-.1,1.68-.29c.23-.19.5-.78.79-1.75.3-.98.39-1.55.27-1.73-.11-.18-.63-.27-1.55-.27Z"/>
      <path class="cls-14" d="M137.38,82.92l-3.77,5.83h-2.1l-.14-2.99c-.01-.27-.02-.63,0-1.08v-.36s-.05,0-.05,0l-.22.36-.21.36c-.15.24-.31.48-.47.73l-1.97,2.99h-2.08l-.18-5.83h1.45l.12,3.2c0,.2,0,.49,0,.85v.43s-.03.43-.03.43h.05c.11-.19.2-.33.26-.43l.26-.42c.14-.22.32-.51.55-.85l2.12-3.2h1.67l.16,3.2c.01.27.02.56.02.85v.42s0,.43,0,.43h.04l.25-.43.24-.43c.2-.34.37-.63.52-.85l2.08-3.19h1.46Z"/>
      <path class="cls-14" d="M139.04,83.85l-.45,1.5h3.52l-.25.82h-3.52l-.5,1.65h3.74l-.28.93h-5.16l1.76-5.83h5.13l-.28.93h-3.71Z"/>
      <path class="cls-14" d="M142.36,88.75l1.76-5.83h3.7c.92,0,1.52.12,1.79.37.27.25.31.7.12,1.35-.18.59-.39.99-.63,1.21-.24.22-.64.37-1.2.45v.04c.81.04,1.11.42.89,1.13l-.39,1.29h-1.42l.32-1.06c.18-.6-.11-.9-.87-.9h-2.05l-.59,1.96h-1.42ZM144.66,85.85h2.04c.49,0,.83-.07,1.03-.2.2-.14.36-.41.48-.81.13-.42.14-.68.04-.8-.1-.12-.38-.18-.85-.18h-2.14l-.61,2Z"/>
    </g>
    <path class="cls-6" d="M71.28,70.46l10.27-31.64h13.81l-8.63,26.67-.13.4h16.64l1.08,5.91h0s0,0,0,0l-1.01,3.12h-28.55c-1.38,0-2.43-.38-3.2-1.15-.69-.69-.77-1.77-.27-3.32Z"/>
    <path class="cls-8" d="M44.08,74.92h-13.68l8.83-27.07h-6.54l-8.83,27.07h-15.16l11.72-36.1h50.08c.68,0,1.36.12,2,.34.61.22,1.13.53,1.53.93.39.39.64.86.78,1.44.13.58.08,1.25-.18,2.01l-10.2,31.38h-13.81l8.82-27.07h-6.54l-8.83,27.07Z"/>
    <path class="cls-13" d="M159.82,41.19c-.12-.53-.34-.96-.67-1.29-.35-.35-.82-.62-1.4-.79-.64-.19-1.31-.29-2-.29h-38.79l-10.75,33.11h0s0,0,0,0l.54,2.99h12.3l3.23-9.95h24.38c.71,0,1.47-.1,2.24-.3.76-.19,1.48-.5,2.15-.91.67-.41,1.28-.94,1.84-1.57.53-.6.93-1.32,1.2-2.12l5.53-16.92c.25-.76.32-1.42.21-1.96ZM141.66,55.95h-2.98c-2.3,0-4.62.41-6.9,1.23h0c-2.25.8-4.48,2.29-6.61,4.43l-2.71,2.71,5.35-16.4h16.42l-2.56,8.03Z"/>
    <g>
      <path class="cls-10" d="M104.32,71.81l-1.08-5.91h-16.64l.13-.4,8.63-26.67h-13.81l-10.27,31.64c-.5,1.55-.41,2.63.27,3.32.77.77,1.82,1.15,3.2,1.15h30.14l-.57-3.12h0Z"/>
      <path class="cls-9" d="M44.08,74.92h-13.68l8.83-27.07h-6.54l-8.83,27.07h-15.16l11.72-36.1h50.08c.68,0,1.36.12,2,.34.61.22,1.13.53,1.53.93.39.39.64.86.78,1.44.13.58.08,1.25-.18,2.01l-10.2,31.38h-13.81l8.82-27.07h-6.54l-8.83,27.07Z"/>
      <g>
        <path class="cls-5" d="M122.47,64.31l2.71-2.71c2.13-2.13,4.36-3.62,6.61-4.43h0c2.28-.82,4.6-1.23,6.9-1.23h2.98l2.56-8.03h-16.42l-5.35,16.4Z"/>
        <g>
          <path class="cls-5" d="M122.47,64.31l2.71-2.71c2.13-2.13,4.36-3.62,6.61-4.43h0c2.28-.82,4.6-1.23,6.9-1.23h2.98l2.56-8.03h-16.42l-5.35,16.4Z"/>
          <path class="cls-11" d="M159.82,41.19c-.12-.53-.34-.96-.67-1.29-.35-.35-.82-.62-1.4-.79-.64-.19-1.31-.29-2-.29h-38.79l-11.55,35.79-.1.31h13.74l3.23-9.95h24.38c.71,0,1.47-.1,2.24-.3.76-.19,1.48-.5,2.15-.91.67-.41,1.28-.94,1.84-1.57.53-.6.93-1.32,1.2-2.12l5.53-16.92c.25-.76.32-1.42.21-1.96ZM141.66,55.95h-2.98c-2.3,0-4.62.41-6.9,1.23h0c-2.25.8-4.48,2.29-6.61,4.43l-2.71,2.71,5.35-16.4h16.42l-2.56,8.03Z"/>
        </g>
      </g>
    </g>
    <polygon class="cls-2" points="95.96 20.83 55.21 62.29 64.69 62.29 50.58 92.58 90.91 51.73 80.9 51.73 95.96 20.83"/>
    <path class="cls-12" d="M92.91,25.41c-.06-.05-.12-.09-.18-.14-10.85,11.52-21.7,23.03-32.56,34.57h8.59l-14.05,26.43,31.2-32.09h-9.2l16.2-28.76Z"/>
  </g>
</svg>