<?xml version="1.0" encoding="UTF-8"?>
<svg id="Layer_2" data-name="Layer 2" xmlns="http://www.w3.org/2000/svg" xmlns:xlink="http://www.w3.org/1999/xlink" viewBox="0 0 160.62 101.18">
  <defs>
    <style>
      .cls-1 {
        fill: url(#linear-gradient-2);
      }

      .cls-2 {
        fill: url(#linear-gradient-10);
      }

      .cls-3 {
        fill: #231f20;
      }

      .cls-4 {
        fill: #fff;
      }

      .cls-5 {
        fill: none;
      }

      .cls-6 {
        fill: url(#linear-gradient-4);
      }

      .cls-7 {
        fill: url(#linear-gradient-3);
      }

      .cls-8 {
        fill: url(#linear-gradient-5);
      }

      .cls-9 {
        fill: url(#linear-gradient-8);
      }

      .cls-10 {
        fill: url(#linear-gradient-7);
      }

      .cls-11 {
        fill: url(#linear-gradient-9);
      }

      .cls-12 {
        fill: url(#linear-gradient-6);
      }

      .cls-13 {
        fill: url(#linear-gradient);
      }
    </style>
    <linearGradient id="linear-gradient" x1="83.62" y1="27.54" x2="63.84" y2="54.32" gradientUnits="userSpaceOnUse">
      <stop offset="0" stop-color="#1d4573"/>
      <stop offset=".54" stop-color="#67beeb"/>
    </linearGradient>
    <linearGradient id="linear-gradient-2" x1="67.67" y1="49.93" x2="50.6" y2="61.28" gradientUnits="userSpaceOnUse">
      <stop offset="0" stop-color="#1d4573"/>
      <stop offset=".54" stop-color="#309fd9"/>
    </linearGradient>
    <linearGradient id="linear-gradient-3" x1="84.41" y1="31.68" x2="84.41" y2="66.63" gradientUnits="userSpaceOnUse">
      <stop offset=".05" stop-color="#fff"/>
      <stop offset=".29" stop-color="#fff"/>
      <stop offset=".7" stop-color="#b0b0b0"/>
      <stop offset=".99" stop-color="#fdfdfd"/>
      <stop offset="1" stop-color="#fff"/>
    </linearGradient>
    <linearGradient id="linear-gradient-4" x1="38.56" y1="31.68" x2="38.56" y2="66.63" xlink:href="#linear-gradient-3"/>
    <linearGradient id="linear-gradient-5" x1="129.81" y1="31.68" x2="129.81" y2="66.63" xlink:href="#linear-gradient-3"/>
    <linearGradient id="linear-gradient-6" x1="84.7" y1="73.28" x2="84.7" y2="19.95" gradientUnits="userSpaceOnUse">
      <stop offset="0" stop-color="#003c6b"/>
      <stop offset=".54" stop-color="#27a4dd"/>
      <stop offset=".7" stop-color="#1da6df"/>
      <stop offset=".97" stop-color="#03afe6"/>
      <stop offset="1" stop-color="#00b0e7"/>
    </linearGradient>
    <linearGradient id="linear-gradient-7" x1="38.56" y1="73.28" x2="38.56" y2="19.95" xlink:href="#linear-gradient-6"/>
    <linearGradient id="linear-gradient-8" x1="129.36" y1="73.28" x2="129.36" y2="19.95" xlink:href="#linear-gradient-6"/>
    <linearGradient id="linear-gradient-9" x1="47.35" y1="50.97" x2="92.73" y2="50.97" xlink:href="#linear-gradient-6"/>
    <linearGradient id="linear-gradient-10" x1="86.27" y1="28.99" x2="66.36" y2="55.95" xlink:href="#linear-gradient-3"/>
  </defs>
  <g id="Layer_1-2" data-name="Layer 1">
    <path class="cls-3" d="M160.48,34.66h0c-.28-1.28-.87-2.38-1.74-3.25-.82-.82-1.85-1.42-3.06-1.79-1.01-.31-2.07-.46-3.16-.46h-41.68l-8.79,27.07h-13.21l8.76-27.07h-8.32L103.49,0l-30.81,30.82c-.63-.46-1.33-.82-2.08-1.09-1.07-.38-2.19-.57-3.32-.57H14.3L0,73.22h50.32l-13.03,27.96,29.42-29.31c1.35.89,2.97,1.34,4.82,1.34h47.19l3.23-9.95h21.49c1.05,0,2.13-.14,3.23-.42,1.15-.29,2.24-.76,3.25-1.38,1-.62,1.93-1.4,2.74-2.33.88-1,1.55-2.18,1.99-3.5l5.53-16.91c.48-1.45.59-2.81.32-4.06Z"/>
    <g>
      <path class="cls-4" d="M61.87,70.16h-15.74l8.82-27.07h-4.61l-8.83,27.07h-15.61l8.83-27.07h-4.61l-8.83,27.07H4.21l12.32-37.94h50.74c.79,0,1.56.13,2.3.39.75.26,1.37.65,1.88,1.15.5.51.84,1.13,1.02,1.88.17.75.11,1.58-.2,2.5l-10.41,32.01Z"/>
      <path class="cls-4" d="M100.78,59.29l1.98,10.87h-31.23c-1.62,0-2.91-.47-3.85-1.42s-1.11-2.36-.49-4.25l10.47-32.27h15.74l-8.76,27.07h16.15Z"/>
      <path class="cls-4" d="M143.43,60.21h-23.71l-3.23,9.95h-15.74l12.32-37.94h39.45c.79,0,1.55.11,2.27.33.72.22,1.32.56,1.78,1.02.46.46.77,1.04.92,1.75.15.7.08,1.51-.23,2.44l-5.53,16.93c-.31.92-.77,1.74-1.38,2.44-.61.7-1.3,1.28-2.04,1.75-.75.46-1.55.8-2.4,1.02-.86.22-1.68.33-2.47.33ZM139.74,43.15h-14.49l-3.95,12.12c2.24-2.24,4.56-3.79,6.95-4.64,2.39-.86,4.8-1.28,7.21-1.28h2.3l1.98-6.19Z"/>
    </g>
    <path class="cls-13" d="M67.65,52.9h-8.15l29.67-33.01c-10.74,11.4-21.48,22.8-32.23,34.22h8.59l-14.05,26.43c.52.03,16.17-27.64,16.17-27.64Z"/>
    <path class="cls-1" d="M56.94,54.1h8.59l2.12-1.21h-8.15l-2.56,1.21Z"/>
    <path class="cls-7" d="M68.05,64.72l10.27-31.64h13.81l-8.63,26.67-.13.4h16.64l1.08,5.91h0s0,0,0,0l-1.01,3.12h-28.55c-1.38,0-2.43-.38-3.2-1.15-.69-.69-.77-1.77-.27-3.32Z"/>
    <path class="cls-6" d="M40.85,69.19h-13.68l8.83-27.07h-6.54l-8.83,27.07H5.47l11.72-36.1h50.08c.68,0,1.36.12,2,.34.61.22,1.13.53,1.53.93.39.39.64.86.78,1.44.13.58.08,1.25-.18,2.01l-10.2,31.38h-13.81l8.82-27.07h-6.54l-8.83,27.07Z"/>
    <path class="cls-8" d="M156.59,35.46c-.12-.53-.34-.96-.67-1.29-.35-.35-.82-.62-1.4-.79-.64-.19-1.31-.29-2-.29h-38.79l-10.75,33.11h0s0,0,0,0l.54,2.99h12.3l3.23-9.95h24.38c.71,0,1.47-.1,2.24-.3.76-.19,1.48-.5,2.15-.91.67-.41,1.28-.94,1.84-1.57.53-.6.93-1.32,1.2-2.12l5.53-16.92c.25-.76.32-1.42.21-1.96ZM138.43,50.21h-2.98c-2.3,0-4.62.41-6.9,1.23h0c-2.25.8-4.48,2.29-6.61,4.43l-2.71,2.71,5.35-16.4h16.42l-2.56,8.03Z"/>
    <g>
      <path class="cls-12" d="M101.09,66.07l-1.08-5.91h-16.64l.13-.4,8.63-26.67h-13.81l-10.27,31.64c-.5,1.55-.41,2.63.27,3.32.77.77,1.82,1.15,3.2,1.15h30.14l-.57-3.12h0Z"/>
      <path class="cls-10" d="M40.85,69.19h-13.68l8.83-27.07h-6.54l-8.83,27.07H5.47l11.72-36.1h50.08c.68,0,1.36.12,2,.34.61.22,1.13.53,1.53.93.39.39.64.86.78,1.44.13.58.08,1.25-.18,2.01l-10.2,31.38h-13.81l8.82-27.07h-6.54l-8.83,27.07Z"/>
      <g>
        <path class="cls-5" d="M119.24,58.58l2.71-2.71c2.13-2.13,4.36-3.62,6.61-4.43h0c2.28-.82,4.6-1.23,6.9-1.23h2.98l2.56-8.03h-16.42l-5.35,16.4Z"/>
        <g>
          <path class="cls-5" d="M119.24,58.58l2.71-2.71c2.13-2.13,4.36-3.62,6.61-4.43h0c2.28-.82,4.6-1.23,6.9-1.23h2.98l2.56-8.03h-16.42l-5.35,16.4Z"/>
          <path class="cls-9" d="M156.59,35.46c-.12-.53-.34-.96-.67-1.29-.35-.35-.82-.62-1.4-.79-.64-.19-1.31-.29-2-.29h-38.79l-11.55,35.79-.1.31h13.74l3.23-9.95h24.38c.71,0,1.47-.1,2.24-.3.76-.19,1.48-.5,2.15-.91.67-.41,1.28-.94,1.84-1.57.53-.6.93-1.32,1.2-2.12l5.53-16.92c.25-.76.32-1.42.21-1.96ZM138.43,50.21h-2.98c-2.3,0-4.62.41-6.9,1.23h0c-2.25.8-4.48,2.29-6.61,4.43l-2.71,2.71,5.35-16.4h16.42l-2.56,8.03Z"/>
        </g>
      </g>
    </g>
    <polygon class="cls-11" points="92.73 15.09 51.98 56.55 61.46 56.55 47.35 86.84 87.68 45.99 77.67 45.99 92.73 15.09"/>
    <path class="cls-2" d="M89.68,19.68c-.06-.05-.12-.09-.18-.14-10.85,11.52-21.7,23.03-32.56,34.57h8.59l-14.05,26.43,31.2-32.09h-9.2l16.2-28.76Z"/>
  </g>
</svg>